<svg fill="#000000" xmlns="http://www.w3.org/2000/svg"  viewBox="0 0 60 60" width="50px" height="50px"><path d="M 3.0039062 0 C 1.3479062 2.9605947e-16 0 1.3479063 0 3.0039062 L 0 21 L 0 39 L 0 56.996094 C 2.9605947e-16 58.652094 1.3479063 60 3.0039062 60 L 21 60 L 56.996094 60 C 58.652094 60 60 58.652094 60 56.996094 L 60 39 L 60 21 L 60 3.0039062 C 60 1.3479062 58.652094 0 56.996094 0 L 21 0 L 3.0039062 0 z M 3.0039062 2 L 20 2 L 20 20 L 2 20 L 2 3.0039062 C 2 2.8654062 2.0272812 2.733375 2.078125 2.6132812 C 2.2306563 2.253 2.5884063 2 3.0039062 2 z M 22 2 L 38 2 L 38 20 L 22 20 L 22 2 z M 40 2 L 56.996094 2 C 57.550094 2 58 2.4499063 58 3.0039062 L 58 20 L 40 20 L 40 2 z M 6 5 C 5.744 5 5.4879688 5.0974687 5.2929688 5.2929688 C 4.9019687 5.6839688 4.9019687 6.3160312 5.2929688 6.7070312 L 9.5859375 11 L 5.2929688 15.292969 C 4.9019688 15.683969 4.9019687 16.316031 5.2929688 16.707031 C 5.4879688 16.902031 5.744 17 6 17 C 6.256 17 6.5120312 16.902031 6.7070312 16.707031 L 11 12.414062 L 15.292969 16.707031 C 15.487969 16.902031 15.744 17 16 17 C 16.256 17 16.512031 16.902031 16.707031 16.707031 C 17.098031 16.316031 17.098031 15.683969 16.707031 15.292969 L 12.414062 11 L 16.707031 6.7070312 C 17.098031 6.3160313 17.098031 5.6839688 16.707031 5.2929688 C 16.317031 4.9019687 15.682969 4.9019687 15.292969 5.2929688 L 11 9.5859375 L 6.7070312 5.2929688 C 6.5120313 5.0974687 6.256 5 6 5 z M 30 5 C 26.692 5 24 7.691 24 11 C 24 14.309 26.692 17 30 17 C 33.308 17 36 14.309 36 11 C 36 7.691 33.308 5 30 5 z M 44 5 C 43.744 5 43.487969 5.0974687 43.292969 5.2929688 C 42.901969 5.6839688 42.901969 6.3160312 43.292969 6.7070312 L 47.585938 11 L 43.292969 15.292969 C 42.901969 15.683969 42.901969 16.316031 43.292969 16.707031 C 43.487969 16.902031 43.744 17 44 17 C 44.256 17 44.512031 16.902031 44.707031 16.707031 L 49 12.414062 L 53.292969 16.707031 C 53.487969 16.902031 53.744 17 54 17 C 54.256 17 54.512031 16.902031 54.707031 16.707031 C 55.098031 16.316031 55.098031 15.683969 54.707031 15.292969 L 50.414062 11 L 54.707031 6.7070312 C 55.098031 6.3160313 55.098031 5.6839688 54.707031 5.2929688 C 54.317031 4.9019687 53.682969 4.9019687 53.292969 5.2929688 L 49 9.5859375 L 44.707031 5.2929688 C 44.512031 5.0974687 44.256 5 44 5 z M 30 7 C 32.206 7 34 8.794 34 11 C 34 13.206 32.206 15 30 15 C 27.794 15 26 13.206 26 11 C 26 8.794 27.794 7 30 7 z M 2 22 L 20 22 L 20 38 L 2 38 L 2 22 z M 22 22 L 38 22 L 38 38 L 22 38 L 22 22 z M 40 22 L 58 22 L 58 38 L 40 38 L 40 22 z M 6 24 C 5.744 24 5.4879688 24.097469 5.2929688 24.292969 C 4.9019687 24.683969 4.9019687 25.316031 5.2929688 25.707031 L 9.5859375 30 L 5.2929688 34.292969 C 4.9019688 34.683969 4.9019687 35.316031 5.2929688 35.707031 C 5.4879688 35.902031 5.744 36 6 36 C 6.256 36 6.5120312 35.902031 6.7070312 35.707031 L 11 31.414062 L 15.292969 35.707031 C 15.487969 35.902031 15.744 36 16 36 C 16.256 36 16.512031 35.902031 16.707031 35.707031 C 17.098031 35.316031 17.098031 34.683969 16.707031 34.292969 L 12.414062 30 L 16.707031 25.707031 C 17.098031 25.316031 17.098031 24.683969 16.707031 24.292969 C 16.317031 23.901969 15.682969 23.901969 15.292969 24.292969 L 11 28.585938 L 6.7070312 24.292969 C 6.5120313 24.097469 6.256 24 6 24 z M 30 24 C 26.692 24 24 26.691 24 30 C 24 33.309 26.692 36 30 36 C 33.308 36 36 33.309 36 30 C 36 26.691 33.308 24 30 24 z M 49 24 C 45.692 24 43 26.691 43 30 C 43 33.309 45.692 36 49 36 C 52.308 36 55 33.309 55 30 C 55 26.691 52.308 24 49 24 z M 30 26 C 32.206 26 34 27.794 34 30 C 34 32.206 32.206 34 30 34 C 27.794 34 26 32.206 26 30 C 26 27.794 27.794 26 30 26 z M 49 26 C 51.206 26 53 27.794 53 30 C 53 32.206 51.206 34 49 34 C 46.794 34 45 32.206 45 30 C 45 27.794 46.794 26 49 26 z M 2 40 L 20 40 L 20 58 L 3.0039062 58 C 2.4499062 58 2 57.550094 2 56.996094 L 2 40 z M 22 40 L 38 40 L 38 58 L 22 58 L 22 40 z M 40 40 L 58 40 L 58 56.996094 C 58 57.550094 57.550094 58 56.996094 58 L 40 58 L 40 40 z M 11 43 C 7.692 43 5 45.691 5 49 C 5 52.309 7.692 55 11 55 C 14.308 55 17 52.309 17 49 C 17 45.691 14.308 43 11 43 z M 25 43 C 24.744 43 24.487969 43.097469 24.292969 43.292969 C 23.901969 43.683969 23.901969 44.316031 24.292969 44.707031 L 28.585938 49 L 24.292969 53.292969 C 23.901969 53.683969 23.901969 54.316031 24.292969 54.707031 C 24.487969 54.902031 24.744 55 25 55 C 25.256 55 25.512031 54.902031 25.707031 54.707031 L 30 50.414062 L 34.292969 54.707031 C 34.487969 54.902031 34.744 55 35 55 C 35.256 55 35.512031 54.902031 35.707031 54.707031 C 36.098031 54.316031 36.098031 53.683969 35.707031 53.292969 L 31.414062 49 L 35.707031 44.707031 C 36.098031 44.316031 36.098031 43.683969 35.707031 43.292969 C 35.317031 42.901969 34.682969 42.901969 34.292969 43.292969 L 30 47.585938 L 25.707031 43.292969 C 25.512031 43.097469 25.256 43 25 43 z M 44 43 C 43.744 43 43.487969 43.097469 43.292969 43.292969 C 42.901969 43.683969 42.901969 44.316031 43.292969 44.707031 L 47.585938 49 L 43.292969 53.292969 C 42.901969 53.683969 42.901969 54.316031 43.292969 54.707031 C 43.487969 54.902031 43.744 55 44 55 C 44.256 55 44.512031 54.902031 44.707031 54.707031 L 49 50.414062 L 53.292969 54.707031 C 53.487969 54.902031 53.744 55 54 55 C 54.256 55 54.512031 54.902031 54.707031 54.707031 C 55.098031 54.316031 55.098031 53.683969 54.707031 53.292969 L 50.414062 49 L 54.707031 44.707031 C 55.098031 44.316031 55.098031 43.683969 54.707031 43.292969 C 54.317031 42.901969 53.682969 42.901969 53.292969 43.292969 L 49 47.585938 L 44.707031 43.292969 C 44.512031 43.097469 44.256 43 44 43 z M 11 45 C 13.206 45 15 46.794 15 49 C 15 51.206 13.206 53 11 53 C 8.794 53 7 51.206 7 49 C 7 46.794 8.794 45 11 45 z"/></svg>